<svg width="133" height="163" viewBox="0 0 133 163" fill="none" xmlns="http://www.w3.org/2000/svg">
<path d="M50.7451 43.817C37.8494 51.6957 24.9536 62.3881 17.8736 77.0199C11.2993 90.8075 12.8165 106.283 21.1608 118.946C28.7465 130.482 40.1251 138.924 51.2509 145.395C63.6409 152.993 77.2952 158.902 91.4552 161.434C101.317 163.122 112.695 163.685 120.787 156.369C128.12 149.897 130.901 139.486 131.912 129.357C133.177 117.257 131.912 104.877 130.142 93.0586C128.372 81.8033 126.097 70.2667 122.304 59.5743C117.247 46.068 107.891 35.0942 94.7424 32.5618C79.318 29.4666 65.158 36.7825 51.2509 42.9729C49.4809 43.817 50.2394 47.1936 52.0094 46.3494C63.8937 41.2846 75.778 35.0942 88.6738 35.3756C99.7995 35.9384 109.408 42.1287 115.477 52.5398C121.04 62.1067 123.315 73.9247 125.338 84.8985C127.361 95.591 128.878 106.565 129.131 117.539C129.384 127.668 128.373 138.642 123.568 147.084C118.511 156.088 109.914 158.902 100.811 158.62C88.1681 158.057 75.7781 153.837 64.1466 148.209C52.2623 142.581 40.6308 135.266 31.0222 125.417C20.4022 114.443 13.3222 99.5303 18.6322 83.2102C24.1951 66.6088 38.8608 54.7908 52.2623 46.6308C54.2851 45.7867 52.5151 42.6915 50.7451 43.817Z" fill="#EDF0EF"/>
<path d="M50.9983 42.6911C47.4583 44.3794 43.4126 45.5049 39.6197 44.3794C36.5854 43.5352 34.0569 41.0028 32.034 38.189C27.4826 31.7173 24.954 23.2759 21.9197 15.6786C20.4025 11.7393 18.6326 7.79998 16.104 4.7048C15.3454 5.54894 14.8397 6.67446 14.0811 7.5186C26.9768 17.9297 46.6998 24.9642 48.9755 45.2235C49.2284 47.4746 52.2626 46.6304 52.0098 44.3794C49.4812 22.9945 29.2526 15.6786 15.5983 4.7048C14.0811 3.57928 12.564 6.1117 13.5754 7.5186C18.3797 13.9903 20.6554 22.7131 23.6897 30.029C26.724 37.0635 30.7697 45.2235 37.8497 48.0373C42.4011 49.7256 47.2055 48.6001 51.5041 46.6304C53.7798 45.2235 53.0212 41.847 50.9983 42.6911Z" fill="#EDF0EF"/>
<path d="M52.7683 41.5677C49.2283 29.187 48.7225 14.5552 56.0554 3.58137C55.044 3.58137 54.2854 3.58137 53.2739 3.58137C56.8139 9.49035 57.5725 16.8062 57.3197 23.5594C57.0668 30.3125 55.5497 37.9097 50.9982 42.9746C49.4811 44.6629 51.7568 47.1953 53.2739 45.507C58.0782 39.8794 60.1011 31.7194 60.354 24.1221C60.8597 16.5249 59.5954 8.08346 55.8025 1.61172C55.0439 0.486198 53.7796 0.486198 53.0211 1.61172C45.1825 13.1483 45.6882 28.9056 49.4811 42.4118C50.2396 44.6629 53.274 43.8187 52.7683 41.5677Z" fill="#EDF0EF"/>
<path d="M50.4925 44.0981C36.5853 58.4485 14.3339 55.3533 2.70241 39.0333C2.44955 39.8774 2.19673 41.0029 1.94387 41.8471C5.98959 40.4402 10.0353 38.4705 14.3339 36.7822C18.3796 35.3753 22.6782 33.9684 26.7239 35.6567C28.7468 36.5009 29.5054 33.1243 27.4825 32.2801C18.8854 28.9036 9.02384 35.3753 1.18525 38.4705C-0.0790392 39.0333 -0.331866 40.4402 0.426707 41.2843C13.0696 59.2926 37.5968 61.8251 52.7683 46.3491C54.2855 44.9422 52.0097 42.4098 50.4925 44.0981Z" fill="#EDF0EF"/>
<path d="M25.2065 87.7119C26.4707 90.5257 28.7465 92.214 30.7694 94.1837C31.0222 94.465 31.5279 94.4651 32.0336 94.4651C32.2865 94.4651 32.7922 93.9023 33.0451 93.6209C33.2979 93.3395 33.2979 92.7768 33.2979 92.214C33.0451 91.6512 32.7922 91.3699 32.5394 91.0885C32.2865 90.8071 32.7922 91.3699 32.5394 91.0885C32.5394 91.0885 32.2865 91.0885 32.2865 90.8071C32.0337 90.8071 32.0336 90.5257 31.7808 90.5257C31.5279 90.2443 31.2751 89.963 31.0222 89.963C30.5165 89.6816 30.0108 89.1188 29.7579 88.5561C29.5051 88.2747 29.2522 88.2747 29.2522 87.9933L28.9993 87.7119C28.9993 87.7119 28.9994 87.7119 28.7465 87.4306C28.4937 87.1492 28.9994 87.7119 28.7465 87.4306C28.4937 86.8678 28.2408 86.305 27.9879 85.7423C27.735 84.8981 26.4708 84.6167 25.7122 85.1795C24.9536 86.0236 24.7007 86.8678 25.2065 87.7119Z" fill="#EDF0EF"/>
<path d="M49.9873 67.7339C51.2516 68.8594 52.263 69.9849 53.2744 71.3918C53.2744 71.3918 53.2745 71.6732 53.5273 71.6732C53.5273 71.3918 53.5273 71.6732 53.5273 71.6732C53.5273 71.9546 53.7802 71.9546 53.7802 72.236C54.033 72.5173 54.2859 72.7987 54.5387 73.3615C55.0444 74.2056 55.5502 74.7684 55.803 75.6125C56.3087 76.4566 57.3201 76.738 58.0787 76.1753C58.8373 75.6125 59.0902 74.487 58.5845 73.6429C56.8145 70.5477 54.7916 67.4525 52.263 65.2014C52.0102 64.9201 51.5045 64.6387 51.2516 64.6387C50.7459 64.6387 50.493 64.9201 50.2402 65.2014C49.4816 65.7642 49.2287 66.8897 49.9873 67.7339Z" fill="#EDF0EF"/>
<path d="M83.8694 49.4445C84.1223 49.7259 84.3751 49.7259 84.628 50.0072C84.8808 50.0072 84.8809 50.2886 85.1337 50.2886C85.1337 50.2886 85.3866 50.2886 85.3866 50.57C85.3866 50.57 85.6394 50.8514 85.3866 50.57C85.1337 50.2886 85.3866 50.57 85.3866 50.57C85.3866 50.57 85.6395 50.57 85.6395 50.8514L85.8923 51.1328C86.1451 51.4142 86.398 51.6955 86.6509 51.9769L86.9038 52.2583C86.9038 52.2583 87.1566 52.5397 86.9038 52.2583C86.9038 52.2583 86.9037 52.5397 87.1565 52.5397C87.4094 52.8211 87.4094 53.1024 87.6623 53.3838C87.9152 53.6652 87.9152 53.9466 88.168 54.2279C88.168 54.5093 88.4208 54.5093 88.4208 54.7907C88.4208 54.7907 88.4208 55.3535 88.4208 54.7907V55.0721C88.6737 55.6349 88.6737 55.9162 89.1795 56.1976C89.4323 56.479 89.938 56.479 90.4437 56.479C91.2023 56.1976 91.9609 55.3535 91.4552 54.2279C90.9494 52.5397 90.1909 50.8514 88.9266 49.4445C87.9152 48.319 86.9038 47.1935 85.6395 46.6307C84.8809 46.3493 83.8694 46.3493 83.3637 47.1934C82.858 47.7562 83.1109 48.8817 83.8694 49.4445Z" fill="#EDF0EF"/>
<path d="M50.24 94.1835C52.01 96.4345 53.78 98.6856 56.3085 100.092C57.0671 100.374 58.0785 100.374 58.5842 99.5297C58.8371 98.6856 58.8371 97.56 58.0785 96.9973C57.5728 96.7159 57.0671 96.4345 56.5614 95.8718C56.5614 95.8718 56.5614 95.8718 56.3085 95.8718C56.5614 95.8718 56.5614 96.1532 56.3085 95.8718L56.0557 95.5904C55.8028 95.309 55.55 95.0276 55.2971 94.7463C54.2857 93.9021 53.5271 92.7766 52.7685 91.6511C52.2628 91.0883 50.9985 91.0883 50.4928 91.6511C49.4813 92.4952 49.4814 93.6207 50.24 94.1835Z" fill="#EDF0EF"/>
<path d="M75.2727 77.8637C77.0427 79.552 78.8127 81.5217 80.3299 83.4913C80.8356 84.0541 82.0999 84.0541 82.6056 83.4913C83.1113 82.6472 83.1113 81.803 82.6056 80.9589C81.0884 78.9892 79.5713 76.7382 77.5484 75.3313C77.2956 75.0499 76.7899 74.7686 76.537 74.7686C76.0313 74.7686 75.7784 75.0499 75.5256 75.3313C75.2727 75.6127 75.0198 76.1755 75.0198 76.4568C74.767 77.0196 74.767 77.5824 75.2727 77.8637Z" fill="#EDF0EF"/>
<path d="M50.9983 120.915C54.2854 123.729 57.3197 127.105 60.8597 129.919C61.6183 130.482 62.3769 130.763 63.1354 129.919C63.6411 129.356 63.894 127.949 63.1354 127.387C59.8483 124.573 56.814 121.196 53.274 118.382C52.5154 117.82 51.7569 117.538 50.9983 118.382C50.4926 118.945 50.2397 120.352 50.9983 120.915Z" fill="#EDF0EF"/>
<path d="M76.2841 104.595C78.0541 106.002 80.077 107.127 81.847 108.534C82.0998 108.816 82.6055 108.816 83.1112 108.816C83.3641 108.816 83.8698 108.253 84.1227 107.971C84.3755 107.69 84.3755 107.127 84.3755 106.564C84.1227 106.002 83.8698 105.72 83.6169 105.439C81.8469 104.032 79.8241 102.907 78.0541 101.5C77.8012 101.218 77.2955 101.218 76.7898 101.218C76.5369 101.218 76.0312 101.781 75.7783 102.062C75.5255 102.344 75.5255 102.907 75.5255 103.469C75.7784 104.032 76.0312 104.313 76.2841 104.595Z" fill="#EDF0EF"/>
<path d="M101.823 77.582C103.593 80.6772 105.616 83.491 107.133 86.5862C107.638 87.4303 108.65 87.7117 109.408 87.149C110.167 86.5862 110.42 85.7421 109.914 84.6165C108.397 81.5214 106.374 78.7076 104.604 75.6124C104.098 74.7682 103.087 74.4869 102.328 75.0496C101.823 75.6124 101.317 76.7379 101.823 77.582Z" fill="#EDF0EF"/>
<path d="M81.3412 126.261C83.6169 128.231 85.6398 130.763 87.9155 132.733C88.1684 133.014 88.6741 133.296 88.9269 133.296C89.4326 133.296 89.6855 133.014 89.9383 132.733C90.4441 132.17 90.6969 130.763 89.9383 130.201C87.6626 128.231 85.6398 125.698 83.364 123.729C83.1112 123.447 82.6055 123.166 82.3526 123.166C81.8469 123.166 81.5941 123.447 81.3412 123.729C80.8355 124.292 80.8355 125.698 81.3412 126.261Z" fill="#EDF0EF"/>
<path d="M101.57 104.032C103.593 106.564 105.363 108.815 107.385 111.348C107.891 111.91 109.156 111.91 109.661 111.348C110.167 110.503 110.167 109.659 109.661 108.815C107.638 106.564 105.615 104.032 103.845 101.499C103.34 100.936 102.076 100.936 101.57 101.499C100.811 102.343 100.811 103.187 101.57 104.032Z" fill="#EDF0EF"/>
<path d="M105.868 136.391C107.638 138.642 109.156 140.893 110.926 142.862C111.431 143.425 112.696 143.425 113.201 142.862C113.707 142.018 113.707 141.174 113.201 140.33C111.431 138.079 109.914 135.828 108.144 133.858C107.638 133.295 106.374 133.295 105.868 133.858C105.363 134.702 105.363 135.828 105.868 136.391Z" fill="#EDF0EF"/>
<path d="M91.4559 147.927C91.9616 148.208 92.4674 148.49 92.9731 149.053C92.9731 149.053 92.9731 149.053 93.2259 149.053C92.9731 148.771 92.9731 149.053 93.2259 149.053L93.4787 149.334C93.7316 149.615 93.9845 149.897 94.2374 150.178C95.2488 151.022 96.0074 152.148 96.7659 153.273C97.2717 153.836 98.5359 153.836 99.0416 153.273C99.5474 152.429 99.5474 151.585 99.0416 150.741C97.2716 148.49 95.5016 146.239 92.9731 144.832C92.2145 144.55 91.2031 144.55 90.6974 145.395C90.4445 146.239 90.6973 147.364 91.4559 147.927Z" fill="#EDF0EF"/>
<path d="M117.247 113.88C118.006 114.443 118.511 115.287 119.017 115.85L118.764 115.569C119.523 116.413 120.028 117.538 120.534 118.664C120.787 118.945 121.04 119.227 121.546 119.508C121.798 119.508 122.304 119.508 122.81 119.227C123.063 118.945 123.569 118.664 123.569 118.101C123.569 117.538 123.569 117.257 123.316 116.694C122.304 114.725 121.293 112.755 119.523 111.067C119.27 110.785 118.764 110.504 118.511 110.504C118.006 110.504 117.753 110.785 117.5 111.067C117.247 111.348 116.994 111.911 116.994 112.192C116.741 113.036 116.741 113.599 117.247 113.88Z" fill="#EDF0EF"/>
<path d="M102.834 51.9764C104.857 54.5089 106.374 57.3227 108.65 59.2923C108.902 59.5737 109.408 59.8551 109.661 59.8551C110.167 59.8551 110.42 59.5737 110.672 59.2923C111.178 58.7296 111.431 57.3227 110.672 56.7599C108.397 54.7903 106.627 51.9765 104.857 49.444C104.351 48.8813 103.087 48.8813 102.581 49.444C102.075 50.2882 102.075 51.1323 102.834 51.9764Z" fill="#EDF0EF"/>
<path d="M30.2642 113.599C31.5284 115.568 33.0456 117.538 34.8156 118.945C35.0685 119.226 35.5742 119.508 35.8271 119.508C36.3328 119.508 36.5856 119.226 36.8385 118.945C37.0913 118.664 37.3442 118.101 37.3442 117.82C37.3442 117.257 37.0913 116.975 36.8385 116.694C35.5742 115.568 34.3099 114.162 33.2985 112.473L33.5514 112.755C33.2985 112.473 33.0456 112.192 33.0456 111.911C32.7927 111.629 32.5399 111.348 32.0342 111.066C31.7813 111.066 31.2756 111.066 30.7699 111.348C30.2642 111.911 29.7584 113.036 30.2642 113.599Z" fill="#EDF0EF"/>
<path d="M49.734 42.6912C45.9411 38.7519 42.1483 34.8125 38.8611 30.5918C38.3554 29.7477 37.091 30.0291 36.5853 30.5918C35.8268 31.436 36.0796 32.2801 36.5853 33.1243C39.8725 37.345 43.6654 41.2843 47.4583 45.2236C47.964 45.7864 48.9754 45.7864 49.734 45.2236C50.2397 44.6609 50.2397 43.5353 49.734 42.6912Z" fill="#EDF0EF"/>
</svg>
